<?xml version="1.0" encoding="UTF-8"?>
<svg xmlns="http://www.w3.org/2000/svg" width="1700" height="1200" viewBox="0 0 1700 1200">
  <defs>
    <marker id="arrow" markerWidth="12" markerHeight="12" refX="10" refY="6" orient="auto" markerUnits="strokeWidth">
      <path d="M2,2 L10,6 L2,10 Z" fill="#334155"/>
    </marker>
    <filter id="shadow" x="-8%" y="-8%" width="116%" height="125%">
      <feDropShadow dx="0" dy="7" stdDeviation="8" flood-color="#0f172a" flood-opacity="0.11"/>
    </filter>
    <style>
      .page { fill: #f4f7fb; }
      .title { font: 800 34px Arial, sans-serif; fill: #172033; }
      .subtitle { font: 600 15px Arial, sans-serif; fill: #526173; }
      .lane { fill: #ffffff; stroke: #d9e0ea; stroke-width: 1.4; rx: 18; filter: url(#shadow); }
      .lane-title { font: 800 18px Arial, sans-serif; fill: #0f5e73; }
      .box-title { font: 800 16px Arial, sans-serif; fill: #172033; }
      .box-sub { font: 600 12px Arial, sans-serif; fill: #667085; }
      .small { font: 700 12px Arial, sans-serif; fill: #334155; }
      .flow { stroke: #334155; stroke-width: 2.2; fill: none; marker-end: url(#arrow); }
      .flow-light { stroke: #7890a8; stroke-width: 1.8; fill: none; marker-end: url(#arrow); }
      .flow-green { stroke: #087443; stroke-width: 2.1; fill: none; marker-end: url(#arrow); }
      .flow-red { stroke: #b42318; stroke-width: 2.1; fill: none; marker-end: url(#arrow); }
      .flow-pink { stroke: #be185d; stroke-width: 1.9; fill: none; marker-end: url(#arrow); }
      .client { fill: #e8f5f7; stroke: #0f5e73; stroke-width: 2; rx: 12; }
      .frontend { fill: #eff6ff; stroke: #2563eb; stroke-width: 2; rx: 12; }
      .backend { fill: #fff7ed; stroke: #f97316; stroke-width: 2; rx: 12; }
      .service { fill: #fffbeb; stroke: #d97706; stroke-width: 2; rx: 12; }
      .data { fill: #ecfdf3; stroke: #087443; stroke-width: 2; rx: 12; }
      .asset { fill: #f8fafc; stroke: #64748b; stroke-width: 2; rx: 12; }
      .external { fill: #fff0ee; stroke: #b42318; stroke-width: 2; rx: 12; }
      .log { fill: #fdf2f8; stroke: #be185d; stroke-width: 2; rx: 12; }
    </style>
  </defs>

  <rect class="page" x="0" y="0" width="1700" height="1200"/>

  <text class="title" x="70" y="68">Identity Search Service - Professional System Flow</text>
  <text class="subtitle" x="70" y="98">Clean client diagram showing how the dashboard, FastAPI backend, services, PostgreSQL, OCR, face matching, OSINT, news intelligence, and logging connect.</text>

  <!-- Column lanes -->
  <rect class="lane" x="55" y="135" width="250" height="225"/>
  <text class="lane-title" x="80" y="170">Client</text>

  <rect class="lane" x="345" y="135" width="285" height="660"/>
  <text class="lane-title" x="370" y="170">Frontend Dashboard</text>

  <rect class="lane" x="670" y="135" width="260" height="660"/>
  <text class="lane-title" x="695" y="170">FastAPI Layer</text>

  <rect class="lane" x="970" y="135" width="300" height="660"/>
  <text class="lane-title" x="995" y="170">Backend Services</text>

  <rect class="lane" x="1310" y="135" width="330" height="660"/>
  <text class="lane-title" x="1335" y="170">PostgreSQL Data</text>

  <rect class="lane" x="55" y="840" width="675" height="250"/>
  <text class="lane-title" x="80" y="875">Local Assets and Model Outputs</text>

  <rect class="lane" x="770" y="840" width="430" height="250"/>
  <text class="lane-title" x="795" y="875">External OSINT Pipeline</text>

  <rect class="lane" x="1240" y="840" width="400" height="250"/>
  <text class="lane-title" x="1265" y="875">Logging and Observability</text>

  <!-- Client -->
  <rect class="client" x="85" y="205" width="190" height="78"/>
  <text class="box-title" x="180" y="237" text-anchor="middle">Client / Operator</text>
  <text class="box-sub" x="180" y="260" text-anchor="middle">Browser user</text>

  <!-- Frontend -->
  <rect class="frontend" x="375" y="195" width="225" height="75"/>
  <text class="box-title" x="487" y="225" text-anchor="middle">Streamlit Dashboard</text>
  <text class="box-sub" x="487" y="248" text-anchor="middle">frontend/dashboard.py</text>

  <rect class="frontend" x="375" y="315" width="225" height="92"/>
  <text class="box-title" x="487" y="346" text-anchor="middle">Operator Workflows</text>
  <text class="box-sub" x="487" y="369" text-anchor="middle">Identity, documents, face,</text>
  <text class="box-sub" x="487" y="387" text-anchor="middle">admin, review, register</text>

  <rect class="frontend" x="375" y="455" width="225" height="86"/>
  <text class="box-title" x="487" y="486" text-anchor="middle">News Intelligence</text>
  <text class="box-sub" x="487" y="509" text-anchor="middle">Top clusters, search,</text>
  <text class="box-sub" x="487" y="527" text-anchor="middle">article drilldown</text>

  <rect class="frontend" x="375" y="590" width="225" height="86"/>
  <text class="box-title" x="487" y="621" text-anchor="middle">OSINT Approval</text>
  <text class="box-sub" x="487" y="644" text-anchor="middle">User confirms targets</text>
  <text class="box-sub" x="487" y="662" text-anchor="middle">before scan submission</text>

  <!-- FastAPI -->
  <rect class="backend" x="700" y="205" width="200" height="78"/>
  <text class="box-title" x="800" y="237" text-anchor="middle">Backend Entry</text>
  <text class="box-sub" x="800" y="260" text-anchor="middle">backend/app.py</text>

  <rect class="backend" x="700" y="345" width="200" height="78"/>
  <text class="box-title" x="800" y="377" text-anchor="middle">API Routes</text>
  <text class="box-sub" x="800" y="400" text-anchor="middle">backend/api/routes.py</text>

  <rect class="backend" x="700" y="485" width="200" height="86"/>
  <text class="box-title" x="800" y="516" text-anchor="middle">Validation Layer</text>
  <text class="box-sub" x="800" y="539" text-anchor="middle">forms, files, search</text>
  <text class="box-sub" x="800" y="557" text-anchor="middle">fields, job ids</text>

  <rect class="backend" x="700" y="620" width="200" height="78"/>
  <text class="box-title" x="800" y="652" text-anchor="middle">JSON Responses</text>
  <text class="box-sub" x="800" y="675" text-anchor="middle">Dashboard-ready data</text>

  <!-- Services -->
  <rect class="service" x="1000" y="190" width="240" height="68"/>
  <text class="box-title" x="1120" y="218" text-anchor="middle">Database Service</text>
  <text class="box-sub" x="1120" y="239" text-anchor="middle">search, CRUD, news, jobs</text>

  <rect class="service" x="1000" y="285" width="240" height="78"/>
  <text class="box-title" x="1120" y="315" text-anchor="middle">Document Verification</text>
  <text class="box-sub" x="1120" y="338" text-anchor="middle">OCR + DB + face + risk</text>

  <rect class="service" x="1000" y="390" width="240" height="68"/>
  <text class="box-title" x="1120" y="418" text-anchor="middle">OCR Service</text>
  <text class="box-sub" x="1120" y="439" text-anchor="middle">extract document fields</text>

  <rect class="service" x="1000" y="485" width="240" height="68"/>
  <text class="box-title" x="1120" y="513" text-anchor="middle">Face Service</text>
  <text class="box-sub" x="1120" y="534" text-anchor="middle">OpenCV face matching</text>

  <rect class="service" x="1000" y="580" width="240" height="68"/>
  <text class="box-title" x="1120" y="608" text-anchor="middle">Risk + Decision</text>
  <text class="box-sub" x="1120" y="629" text-anchor="middle">score and final status</text>

  <rect class="service" x="1000" y="675" width="240" height="68"/>
  <text class="box-title" x="1120" y="703" text-anchor="middle">OSINT Service</text>
  <text class="box-sub" x="1120" y="724" text-anchor="middle">scan submit + status</text>

  <!-- Database -->
  <rect class="data" x="1340" y="190" width="260" height="70"/>
  <text class="box-title" x="1470" y="218" text-anchor="middle">demodataset</text>
  <text class="box-sub" x="1470" y="240" text-anchor="middle">identity master records</text>

  <rect class="data" x="1340" y="295" width="260" height="70"/>
  <text class="box-title" x="1470" y="323" text-anchor="middle">manual_review_cases</text>
  <text class="box-sub" x="1470" y="345" text-anchor="middle">human review queue</text>

  <rect class="data" x="1340" y="400" width="260" height="70"/>
  <text class="box-title" x="1470" y="428" text-anchor="middle">osint_jobs</text>
  <text class="box-sub" x="1470" y="450" text-anchor="middle">status + result JSONB</text>

  <rect class="data" x="1340" y="505" width="260" height="86"/>
  <text class="box-title" x="1470" y="535" text-anchor="middle">news tables</text>
  <text class="box-sub" x="1470" y="558" text-anchor="middle">clusters, articles,</text>
  <text class="box-sub" x="1470" y="576" text-anchor="middle">article and cluster entities</text>

  <rect class="data" x="1340" y="635" width="260" height="70"/>
  <text class="box-title" x="1470" y="663" text-anchor="middle">audit timestamps</text>
  <text class="box-sub" x="1470" y="685" text-anchor="middle">created, updated, completed</text>

  <!-- Assets -->
  <rect class="asset" x="90" y="920" width="175" height="76"/>
  <text class="box-title" x="177" y="951" text-anchor="middle">uploads/</text>
  <text class="box-sub" x="177" y="974" text-anchor="middle">documents and photos</text>

  <rect class="asset" x="300" y="920" width="190" height="76"/>
  <text class="box-title" x="395" y="951" text-anchor="middle">Indian ID Validator</text>
  <text class="box-sub" x="395" y="974" text-anchor="middle">specialized OCR model</text>

  <rect class="asset" x="525" y="920" width="170" height="76"/>
  <text class="box-title" x="610" y="951" text-anchor="middle">Face Evidence</text>
  <text class="box-sub" x="610" y="974" text-anchor="middle">matched photo output</text>

  <!-- External -->
  <rect class="external" x="810" y="920" width="160" height="76"/>
  <text class="box-title" x="890" y="951" text-anchor="middle">OSINT Engine</text>
  <text class="box-sub" x="890" y="974" text-anchor="middle">/api/v1/scan</text>

  <rect class="external" x="1010" y="920" width="150" height="76"/>
  <text class="box-title" x="1085" y="951" text-anchor="middle">Webhook</text>
  <text class="box-sub" x="1085" y="974" text-anchor="middle">final results</text>

  <!-- Logging -->
  <rect class="log" x="1275" y="920" width="165" height="76"/>
  <text class="box-title" x="1357" y="951" text-anchor="middle">Central Logger</text>
  <text class="box-sub" x="1357" y="974" text-anchor="middle">utils/logger.py</text>

  <rect class="log" x="1470" y="920" width="140" height="76"/>
  <text class="box-title" x="1540" y="951" text-anchor="middle">Outputs</text>
  <text class="box-sub" x="1540" y="974" text-anchor="middle">terminal + logs</text>

  <!-- Main clean arrows -->
  <path class="flow" d="M275 244 L375 232"/>
  <path class="flow" d="M487 270 L487 315"/>
  <path class="flow" d="M487 407 L487 455"/>
  <path class="flow" d="M487 541 L487 590"/>
  <path class="flow" d="M600 232 L700 244"/>
  <path class="flow" d="M800 283 L800 345"/>
  <path class="flow" d="M800 423 L800 485"/>
  <path class="flow" d="M800 571 L800 620"/>

  <!-- API to services, separated by short non-overlapping connectors -->
  <path class="flow-light" d="M900 528 L950 528 L950 224 L1000 224"/>
  <path class="flow-light" d="M900 528 L950 528 L950 324 L1000 324"/>
  <path class="flow-light" d="M900 528 L950 528 L950 424 L1000 424"/>
  <path class="flow-light" d="M900 528 L950 528 L950 519 L1000 519"/>
  <path class="flow-light" d="M900 528 L950 528 L950 614 L1000 614"/>
  <path class="flow-light" d="M900 528 L950 528 L950 709 L1000 709"/>

  <!-- Document service inner dependencies, kept inside service lane -->
  <path class="flow-light" d="M1120 363 L1120 390"/>
  <path class="flow-light" d="M1120 458 L1120 485"/>
  <path class="flow-light" d="M1120 553 L1120 580"/>

  <!-- Service to DB -->
  <path class="flow-green" d="M1240 224 L1340 225"/>
  <path class="flow-green" d="M1240 224 L1290 224 L1290 330 L1340 330"/>
  <path class="flow-green" d="M1240 224 L1290 224 L1290 435 L1340 435"/>
  <path class="flow-green" d="M1240 224 L1290 224 L1290 548 L1340 548"/>
  <path class="flow-green" d="M1240 224 L1290 224 L1290 670 L1340 670"/>

  <!-- Services to assets, each routed down its own vertical path -->
  <path class="flow-light" d="M1000 324 L925 324 L925 810 L177 810 L177 920"/>
  <path class="flow-light" d="M1000 424 L900 424 L900 825 L395 825 L395 920"/>
  <path class="flow-light" d="M1000 519 L875 519 L875 840 L610 840 L610 920"/>

  <!-- OSINT loop -->
  <path class="flow-red" d="M1120 743 L1120 805 L890 805 L890 920"/>
  <path class="flow-red" d="M970 958 L1010 958"/>
  <path class="flow-red" d="M1085 920 L1085 805 L800 805 L800 698"/>
  <path class="flow-green" d="M1160 958 L1470 958 L1470 470"/>

  <!-- Logging paths placed below main lanes to avoid overlap -->
  <path class="flow-pink" d="M800 698 L800 1115 L1357 1115 L1357 996"/>
  <path class="flow-pink" d="M1120 743 L1120 1135 L1357 1135 L1357 996"/>
  <path class="flow-pink" d="M1440 958 L1470 958"/>

  <!-- Explanatory footer -->
  <text class="small" x="70" y="1140">Reading guide: arrows move left to right through the product. OSINT has a return webhook loop. Database writes include identity records, review cases, OSINT results, and news intelligence tables.</text>
</svg>
